<svg width="35" height="47" viewBox="0 0 35 47" fill="none" xmlns="http://www.w3.org/2000/svg">
<g clip-path="url(#clip0)">
<path d="M3.00838 46.1081H1.69171C1.67535 46.1081 1.66309 46.0958 1.66309 46.0795V43.397C1.66309 43.3807 1.67535 43.3684 1.69171 43.3684H2.0311C2.09244 43.3684 2.14968 43.397 2.19057 43.4461C2.23146 43.4911 2.256 43.5565 2.256 43.626V45.4129H3.00838C3.02474 45.4129 3.03701 45.4252 3.03701 45.4416V46.0795C3.03701 46.0958 3.02474 46.1081 3.00838 46.1081ZM6.87254 46.1081H6.33687C6.32461 46.1081 6.31234 46.0958 6.31234 46.0795V43.397C6.31234 43.3807 6.32461 43.3684 6.33687 43.3684H6.81938C6.83165 43.3684 6.848 43.3725 6.86027 43.3766L6.86436 43.3807C6.87663 43.3848 6.88481 43.397 6.89707 43.4093L7.48181 44.223L8.06654 43.4093C8.07472 43.397 8.08699 43.3848 8.09926 43.3807C8.11152 43.3725 8.12788 43.3684 8.14423 43.3684H8.62265C8.63901 43.3684 8.64719 43.3807 8.64719 43.397V46.0795C8.64719 46.0958 8.63901 46.1081 8.62265 46.1081H8.08699C8.07472 46.1081 8.06245 46.0958 8.06245 46.0795V44.4888L7.858 44.775L7.64946 45.0572C7.63719 45.0776 7.62084 45.094 7.60039 45.1063C7.56359 45.1349 7.5227 45.1471 7.48181 45.1471C7.44092 45.1471 7.39594 45.1349 7.35914 45.1063C7.34278 45.094 7.32642 45.0776 7.31007 45.0572L6.90116 44.4847V46.0795C6.90116 46.0958 6.8889 46.1081 6.87254 46.1081ZM9.75532 46.1081H9.21966C9.2033 46.1081 9.19103 46.0958 9.19103 46.0795V43.397C9.19103 43.3807 9.2033 43.3684 9.21966 43.3684H9.55905C9.62038 43.3684 9.67763 43.397 9.71852 43.4461C9.75941 43.4952 9.78395 43.5606 9.78395 43.6301V46.0795C9.78395 46.0958 9.77168 46.1081 9.75532 46.1081ZM10.888 46.1081H10.3523C10.336 46.1081 10.3237 46.0958 10.3237 46.0795V43.397C10.3237 43.3807 10.336 43.3684 10.3523 43.3684H10.7735C10.8062 43.3684 10.8389 43.3766 10.8675 43.3929C10.8962 43.4093 10.9248 43.4338 10.9452 43.4584L12.0738 45.0286V43.397C12.0738 43.3807 12.0861 43.3684 12.1024 43.3684H12.4377C12.5032 43.3684 12.5604 43.397 12.5972 43.4461C12.6381 43.4952 12.6626 43.5565 12.6626 43.6301V46.0795C12.6626 46.0958 12.6504 46.1081 12.634 46.1081H12.0943C12.0861 46.1081 12.0779 46.104 12.0738 46.0958L10.9125 44.4847V46.0795C10.9125 46.0958 10.9003 46.1081 10.888 46.1081ZM16.6168 46.1081H16.0852C16.0688 46.1081 16.0566 46.0958 16.0566 46.0795V44.0595H15.3737C15.3614 44.0595 15.3491 44.0472 15.3491 44.0349V43.397C15.3491 43.3807 15.3614 43.3684 15.3737 43.3684H17.1279C17.1933 43.3684 17.2506 43.397 17.2874 43.4461C17.3282 43.4952 17.3528 43.5606 17.3528 43.6301V44.0349C17.3528 44.0472 17.3405 44.0595 17.3282 44.0595H16.6454V46.0795C16.6454 46.0958 16.6331 46.1081 16.6168 46.1081ZM3.46636 46.0795H4.02247L4.23919 45.5274H5.04064L5.25736 46.0795H5.8053H5.81347L4.81575 43.5361C4.78712 43.4543 4.71761 43.397 4.63583 43.397C4.55405 43.397 4.48453 43.4584 4.45591 43.5442V43.5483L3.46636 46.0795ZM4.47227 44.9263L4.63992 44.5011L4.80348 44.9263H4.47227ZM13.1615 46.0795H13.7176L13.9343 45.5274H14.7358L14.9525 46.0795H15.5045H15.5086L14.515 43.5361C14.4823 43.4543 14.4168 43.397 14.3351 43.397C14.2533 43.397 14.1838 43.4584 14.1551 43.5442L14.1511 43.5483L13.1615 46.0795ZM14.1715 44.9263L14.3391 44.5011L14.4986 44.9263H14.1715Z" fill="#4A4A4A"/>
<path d="M21.0002 46.0547C20.9593 46.0874 20.9061 46.1078 20.853 46.1078C20.7998 46.1078 20.7466 46.0874 20.7057 46.0547C20.6649 46.0179 20.6321 45.9688 20.6158 45.9116L19.8511 43.405L19.847 43.3968C19.847 43.3804 19.8593 43.3682 19.8757 43.3682H20.2805C20.3255 43.3682 20.3664 43.3845 20.4032 43.4131C20.4359 43.4418 20.4645 43.4827 20.4768 43.5317L20.853 44.7584L21.2291 43.5317C21.2414 43.4827 21.27 43.4418 21.3027 43.4131C21.3396 43.3845 21.3804 43.3682 21.4254 43.3682H21.8302H21.8384C21.8507 43.3723 21.8589 43.3886 21.8548 43.405C21.6749 43.9979 21.3191 45.4413 21.0901 45.9156C21.0697 45.9729 21.041 46.0179 21.0002 46.0547ZM22.738 46.1078H22.2023C22.186 46.1078 22.1737 46.0956 22.1737 46.0792V43.3968C22.1737 43.3804 22.186 43.3682 22.2023 43.3682H22.5417C22.6031 43.3682 22.6603 43.3968 22.7012 43.4459C22.7421 43.4949 22.7666 43.5603 22.7666 43.6299V46.0792C22.7666 46.0956 22.7544 46.1078 22.738 46.1078ZM24.3573 46.1078H23.8216C23.8052 46.1078 23.793 46.0956 23.793 46.0792V44.0592H23.1142C23.0978 44.0592 23.0856 44.0469 23.0856 44.0347V43.3968C23.0856 43.3804 23.0978 43.3682 23.1142 43.3682H24.8684C24.9297 43.3682 24.987 43.3968 25.0279 43.4459C25.0647 43.4949 25.0892 43.5603 25.0892 43.6299V44.0347C25.0892 44.0469 25.081 44.0592 25.0647 44.0592H24.3818V46.0792C24.3818 46.0956 24.3695 46.1078 24.3573 46.1078ZM29.2396 46.1078H27.9188C27.9025 46.1078 27.8902 46.0956 27.8902 46.0792V43.3968C27.8902 43.3804 27.9025 43.3682 27.9188 43.3682H28.2582C28.3237 43.3682 28.3809 43.3968 28.4177 43.4459C28.4586 43.4908 28.4831 43.5563 28.4831 43.6258V45.4127H29.2396C29.2519 45.4127 29.2641 45.425 29.2641 45.4413V46.0792C29.2641 46.0956 29.2519 46.1078 29.2396 46.1078ZM30.4868 46.1078H29.947C29.9347 46.1078 29.9225 46.0956 29.9225 46.0792V43.3968C29.9225 43.3804 29.9347 43.3682 29.947 43.3682H30.2905C30.3518 43.3682 30.4091 43.3968 30.45 43.4459C30.4868 43.4949 30.5113 43.5603 30.5113 43.6299V46.0792C30.5113 46.0956 30.499 46.1078 30.4868 46.1078ZM32.241 46.1078H31.7053C31.6889 46.1078 31.6767 46.0956 31.6767 46.0792V44.8443L30.8384 43.4091C30.8343 43.405 30.8302 43.4009 30.8302 43.3968C30.8302 43.3804 30.8425 43.3682 30.8589 43.3682H31.4109C31.4477 43.3682 31.4845 43.3804 31.5131 43.4009C31.5458 43.4172 31.5744 43.4459 31.5949 43.4827L31.9711 44.1287L32.3514 43.4867C32.3718 43.4499 32.4004 43.4213 32.4291 43.4009C32.4618 43.3845 32.4986 43.3723 32.5354 43.3723H33.0874C33.0915 43.3723 33.0956 43.3723 33.0997 43.3763C33.1119 43.3845 33.116 43.4009 33.1078 43.4131L32.2655 44.8443V46.0792C32.2655 46.0956 32.2532 46.1078 32.241 46.1078ZM25.0279 46.0792H25.5881L25.8048 45.5272H26.6063L26.8189 46.0792H27.3709H27.3791L26.3814 43.5358C26.3527 43.454 26.2832 43.3968 26.2014 43.3968C26.1197 43.3968 26.0501 43.4581 26.0215 43.544L26.0174 43.5481L25.0279 46.0792ZM26.0379 44.9261L26.2055 44.5008L26.3691 44.9261H26.0379Z" fill="#4A4A4A"/>
<path fill-rule="evenodd" clip-rule="evenodd" d="M1.70093 13.6856L17.3252 0.845947C19.8522 2.85776 22.3834 4.86958 24.9063 6.88548C17.1616 13.4361 9.42106 19.9909 1.67639 26.5416V13.706L1.70093 13.6856Z" fill="#916D37"/>
<path d="M1.71277 20.2252C3.15954 19.1122 5.14931 16.9736 7.54075 14.5842C9.09538 13.0305 11.0926 11.8112 12.9968 10.7438C14.3506 9.98402 14.9866 8.93559 15.5036 7.96313C16.8016 5.52818 11.5649 8.49114 8.01681 10.2423C7.61514 10.4399 1.98045 14.809 1.76101 15.1129M1.76101 22.0643C2.74288 21.3197 3.84387 20.4873 5.08236 19.4883C6.42499 18.4057 6.93452 16.3734 8.70114 15.3743C13.3576 12.7343 12.6621 12.9926 15.3362 9.43321C16.5524 7.81118 17.3334 7.24898 17.7388 6.22714C19.0405 2.97548 11.8513 6.51584 8.13211 9.14831C7.72671 9.43701 4.05955 12.8015 1.76109 14.4995M1.76101 23.9043C5.20127 19.2776 8.21393 18.4892 11.5017 15.6402C12.7997 14.512 14.7077 14.0942 15.6858 11.7314C15.8308 11.3781 20.7986 4.43422 21.5929 4.27689M1.76101 25.9489C5.09342 20.3192 9.31481 19.6632 11.8997 17.3878C13.67 15.8265 14.9866 15.3555 16.4891 13.6727C16.7718 13.3574 22.9311 6.06012 23.5445 5.91266M17.9128 1.41455C16.9587 2.09606 16.6862 3.05017 15.8683 4.07244C15.4078 4.64805 18.5943 3.32278 19.5485 2.64127M12.61 10.1094C13.246 9.05715 9.90244 10.8235 7.78622 11.5795C6.52169 12.0277 4.5282 14.3335 3.25252 16.1227C2.53471 17.1293 1.68301 17.965 2.18511 18.1815C3.07028 18.5614 4.52076 16.2518 7.05354 14.1474C8.15814 13.2281 9.31853 12.324 10.5459 11.6326C11.4199 11.1426 12.2418 10.721 12.61 10.1094Z" stroke="#2B2A29" stroke-width="0.0817811"/>
<path fill-rule="evenodd" clip-rule="evenodd" d="M1.72455 27.9277L11.3747 19.8027V31.7714C8.15254 34.4702 4.92219 37.1649 1.69592 39.8595V27.9522L1.72455 27.9277Z" fill="#4A4A4A"/>
<path d="M11.3666 20.8374C8.83543 20.9723 3.70365 27.4862 2.57916 29.8333C2.03123 30.9823 2.87357 31.7102 1.76135 32.0823M11.3706 22.0641C9.00715 23.8142 5.52328 27.1427 3.93264 30.8842C3.75681 31.2931 1.99034 33.1782 1.76135 33.9224M1.76135 35.3535C5.94445 35.3535 9.95581 28.2296 11.3093 27.5263M11.3093 24.4927C11.1253 24.7626 6.54145 28.6007 4.77089 30.9151C4.02669 31.8842 3.7609 32.7142 4.41924 32.4975C5.34336 32.1908 10.9495 26.8097 11.3093 26.2004M1.76135 36.5803C4.07576 35.6766 5.99763 34.4786 7.94811 32.8879C9.53057 31.5999 9.96399 29.6738 11.3093 29.22M1.76135 38.0114C5.8136 37.0873 5.64186 35.513 7.28157 35.1491" stroke="#2B2A29" stroke-width="0.0817811"/>
<path fill-rule="evenodd" clip-rule="evenodd" d="M18.105 14.307L25.8742 7.73999C28.1968 9.70274 30.5194 11.6696 32.842 13.6364C29.7302 16.2207 26.6184 18.8009 23.5067 21.3852L23.5026 19.1076L18.0437 14.3602L18.105 14.307Z" fill="#4A4A4A"/>
<path d="M21.385 17.273C21.8081 17.1156 26.7456 13.726 23.8421 17.5658C23.6636 17.8001 23.0605 18.724 22.8199 18.3836M20.162 16.1346C20.2862 16.1127 24.3229 14.504 24.3229 14.504C24.3229 14.504 29.8696 11.6555 30.1802 11.4322M31.2024 12.2931C29.1219 14.4491 28.8256 14.3502 26.5859 16.9309C25.8057 17.8277 24.0452 20.3162 23.6377 21.246M28.5445 10.0011C27.5664 10.7734 20.1191 14.1526 18.3219 14.5443M26.0911 7.95654C26.0096 9.34751 22.1779 11.8319 20.5709 12.2931" stroke="#2B2A29" stroke-width="0.0817811"/>
<path fill-rule="evenodd" clip-rule="evenodd" d="M23.5314 23.0618L33.3369 15.0554C33.3165 18.9932 33.2919 22.935 33.2674 26.8769L26.3405 32.6138L16.9112 40.7183H2.73853C5.92799 37.9623 9.11745 35.2104 12.311 32.4584L23.5027 32.483L23.5068 23.0822L23.5314 23.0618Z" fill="#916D37"/>
<path d="M13.4149 32.4912C12.5014 33.6703 9.73472 34.3312 8.39851 36.1907C8.14499 36.6707 4.70035 40.5219 4.15308 40.6693M14.6416 32.4912C13.374 33.9538 9.98897 35.8619 7.86022 38.4319C7.58256 38.7645 7.04735 40.1817 6.84212 40.639M17.5039 32.4912C15.842 34.3279 14.0332 34.8377 11.6268 37.196C10.8622 37.9443 9.02634 39.7093 8.71246 40.6693M19.9574 32.4912C18.8709 33.0165 15.2686 35.8619 12.8501 37.1166C12.1539 37.4795 10.0277 39.7849 9.93918 40.6693M21.1841 32.4912C20.5161 33.1072 16.8863 36.7349 14.4396 37.4643C12.1861 38.1409 13.9849 39.3049 15.4819 38.4961C18.0734 37.0902 22.685 33.2617 23.7796 32.6985C24.3389 32.4113 26.347 28.938 24.1498 30.1966C24.1458 30.1966 23.5663 30.507 23.5341 30.5184M22.0935 36.1713C20.9104 36.5833 11.9837 40.6806 11.9837 40.6693M18.8097 39.0387C17.583 39.0387 14.6076 40.6744 14.5674 40.6744M23.5341 29.6127C23.9687 29.3293 23.5864 28.4147 26.3993 26.9709C27.6628 26.3209 31.8358 22.927 29.357 26.6761C28.0934 28.5885 27.4455 28.3353 26.8862 30.9053C26.8178 31.2001 25.4775 32.4926 25.4775 33.309M23.6375 26.7665C24.5269 26.1958 32.6333 22.473 33.2467 21.4507M33.2467 23.9041C33.0737 25.6805 31.4616 25.1133 29.6145 28.1859C29.4858 28.3976 28.8701 30.3106 28.8701 30.4466M33.3207 20.1814C32.0169 20.1436 25.4468 23.1202 24.0464 25.1309C23.8211 25.4521 24.0198 25.7442 23.6375 25.7442M33.3207 15.3171C32.4797 16.7533 27.683 19.1268 27.9043 20.5289C28.2021 20.5894 33.5647 17.8881 33.2468 17.975M26.2954 20.8374C26.1384 21.6839 24.4061 23.075 23.6375 23.0863" stroke="#2B2A29" stroke-width="0.0817811"/>
<path fill-rule="evenodd" clip-rule="evenodd" d="M33.0097 40.7184L18.6489 40.7102C23.4863 36.5884 28.3195 32.4667 33.1487 28.3408C33.1242 32.4667 33.1037 36.5925 33.0792 40.7184H33.0097Z" fill="#4A4A4A"/>
<path d="M32.627 28.811C29.0245 32.6228 25.9414 35.3232 23.0698 39.5249C22.6245 40.1808 22.0346 40.8696 21.5931 40.3922M33.0425 31.6734C31.9146 32.8759 22.4687 39.3136 23.2293 40.6693M32.9052 33.625C32.6158 33.7708 25.6334 40.5817 25.5963 40.6692M32.9052 35.0572C32.3821 35.4434 27.9522 39.9112 28.5867 40.3849M32.9757 36.719C31.7885 38.5302 31.5436 38.2787 30.8869 40.3851M33.0425 39.5249C32.8199 39.7727 32.4415 40.3631 32.2782 40.4979" stroke="#2B2A29" stroke-width="0.0817811"/>
<path d="M17.9253 28.6187C17.7781 28.7251 17.5941 28.7864 17.3978 28.7864C17.2015 28.7864 17.0134 28.7251 16.8621 28.6187C16.7067 28.5124 16.5882 28.357 16.5227 28.1771L13.5745 20.0767C13.5704 20.0685 13.5704 20.0604 13.5704 20.0522C13.5704 20.0236 13.595 19.999 13.6236 19.999H15.1856C15.3451 19.999 15.4964 20.0522 15.6231 20.1381C15.7458 20.228 15.8439 20.3507 15.8971 20.4979L17.3978 24.6074L18.8903 20.502C18.9475 20.3507 19.0498 20.2239 19.1724 20.1381C19.2992 20.0481 19.4505 19.999 19.6141 19.999H21.1638C21.172 19.999 21.1761 20.0031 21.1843 20.0031C21.2088 20.0154 21.2251 20.044 21.2129 20.0726L18.2728 28.1649C18.2728 28.173 18.2688 28.1812 18.2606 28.1853V28.1894C18.1952 28.3611 18.0766 28.5124 17.9253 28.6187Z" fill="#E1B326"/>
</g>
<defs>
<clipPath id="clip0">
<rect width="35" height="47" fill="white"/>
</clipPath>
</defs>
</svg>
